<?xml version="1.0"?>
<svg width="45" height="45" xmlns="http://www.w3.org/2000/svg" xmlns:svg="http://www.w3.org/2000/svg">
 <!-- Created with SVG-edit - https://github.com/SVG-Edit/svgedit-->
 <g class="layer">
  <title>Layer 1</title>
  <path d="m21.436588,40.397736l-0.69,-1.19l18.47,-9.52l-17.78,10.71zm-4,-32.74l0.44,9.63l-1.13,-0.7l0.69,-8.93zm23.6,-2.17l-4.52,11.56l-1,-1.08l5.52,-10.48zm2.43,22.36l-16.88,-1.13a0.17,0.17 0 0 0 -0.17,0.09a0.18,0.18 0 0 0 0,0.2l2.12,3.68l-5.69,3.53c-0.88,-1.18 -1.88,-2.4 -2.95,-3.63l14.15,-14.19l2.74,2.84a0.18,0.18 0 0 0 0.17,0.06a0.24,0.24 0 0 0 0.14,-0.12l6.53,-17.68a0.19,0.19 0 0 0 -0.24,-0.25l-17,6.79a0.2,0.2 0 0 0 -0.12,0.15a0.18,0.18 0 0 0 0.05,0.17l2.74,2.85l-13.66,14.67c-1.18,-1.12 -2.35,-2.15 -3.49,-3.08l3.4,-5.87l3.54,2.21a0.18,0.18 0 0 0 0.2,0a0.19,0.19 0 0 0 0.09,-0.18l-1.1,-17.56a0.18,0.18 0 0 0 -0.14,-0.17a0.19,0.19 0 0 0 -0.21,0.09l-7.16,12.4a0.11,0.11 0 0 0 0,0.08l-6.44,11.09a0.26,0.26 0 0 0 0,0.15a0.2,0.2 0 0 0 0.1,0.12a38.94,38.94 0 0 1 6.91,5.37l-8.68,9.31l4.09,4.24l9,-9a39.39,39.39 0 0 1 5.16,7.18a0.23,0.23 0 0 0 0.12,0.1a0.26,0.26 0 0 0 0.06,0.04l10.7,-6.71l0.08,0l11.93,-7.45a0.19,0.19 0 0 0 0.08,-0.21a0.17,0.17 0 0 0 -0.17,-0.15" fill="#10284a" id="svg_1"/>
 </g>
</svg>